<?xml version="1.0" encoding="UTF-8" standalone="no"?>
<!-- Created with Inkscape (http://www.inkscape.org/) -->

<svg
   xmlns:dc="http://purl.org/dc/elements/1.1/"
   xmlns:cc="http://creativecommons.org/ns#"
   xmlns:rdf="http://www.w3.org/1999/02/22-rdf-syntax-ns#"
   xmlns:svg="http://www.w3.org/2000/svg"
   xmlns="http://www.w3.org/2000/svg"
   xmlns:sodipodi="http://sodipodi.sourceforge.net/DTD/sodipodi-0.dtd"
   xmlns:inkscape="http://www.inkscape.org/namespaces/inkscape"
   width="198.34004mm"
   height="114.01174mm"
   viewBox="0 0 702.77968 403.97861"
   id="svg2"
   version="1.1"
   inkscape:version="0.91 r13725"
   sodipodi:docname="filetree.svg">
  <defs
     id="defs4">
    <marker
       inkscape:stockid="Arrow1Lend"
       orient="auto"
       refY="0"
       refX="0"
       id="marker7564"
       style="overflow:visible"
       inkscape:isstock="true">
      <path
         id="path7566"
         d="M 0,0 5,-5 -12.5,0 5,5 0,0 Z"
         style="fill:#000000;fill-opacity:1;fill-rule:evenodd;stroke:#000000;stroke-width:1pt;stroke-opacity:1"
         transform="matrix(-0.8,0,0,-0.8,-10,0)"
         inkscape:connector-curvature="0" />
    </marker>
    <marker
       inkscape:isstock="true"
       style="overflow:visible"
       id="marker7468"
       refX="0"
       refY="0"
       orient="auto"
       inkscape:stockid="Arrow1Lend"
       inkscape:collect="always">
      <path
         transform="matrix(-0.8,0,0,-0.8,-10,0)"
         style="fill:#000000;fill-opacity:1;fill-rule:evenodd;stroke:#000000;stroke-width:1pt;stroke-opacity:1"
         d="M 0,0 5,-5 -12.5,0 5,5 0,0 Z"
         id="path7470"
         inkscape:connector-curvature="0" />
    </marker>
    <marker
       inkscape:stockid="Arrow1Lend"
       orient="auto"
       refY="0"
       refX="0"
       id="marker7378"
       style="overflow:visible"
       inkscape:isstock="true"
       inkscape:collect="always">
      <path
         id="path7380"
         d="M 0,0 5,-5 -12.5,0 5,5 0,0 Z"
         style="fill:#000000;fill-opacity:1;fill-rule:evenodd;stroke:#000000;stroke-width:1pt;stroke-opacity:1"
         transform="matrix(-0.8,0,0,-0.8,-10,0)"
         inkscape:connector-curvature="0" />
    </marker>
    <marker
       inkscape:isstock="true"
       style="overflow:visible"
       id="marker7294"
       refX="0"
       refY="0"
       orient="auto"
       inkscape:stockid="Arrow1Lend"
       inkscape:collect="always">
      <path
         transform="matrix(-0.8,0,0,-0.8,-10,0)"
         style="fill:#000000;fill-opacity:1;fill-rule:evenodd;stroke:#000000;stroke-width:1pt;stroke-opacity:1"
         d="M 0,0 5,-5 -12.5,0 5,5 0,0 Z"
         id="path7296"
         inkscape:connector-curvature="0" />
    </marker>
    <marker
       inkscape:stockid="Arrow1Lend"
       orient="auto"
       refY="0"
       refX="0"
       id="marker6874"
       style="overflow:visible"
       inkscape:isstock="true"
       inkscape:collect="always">
      <path
         id="path6876"
         d="M 0,0 5,-5 -12.5,0 5,5 0,0 Z"
         style="fill:#000000;fill-opacity:1;fill-rule:evenodd;stroke:#000000;stroke-width:1pt;stroke-opacity:1"
         transform="matrix(-0.8,0,0,-0.8,-10,0)"
         inkscape:connector-curvature="0" />
    </marker>
    <marker
       inkscape:isstock="true"
       style="overflow:visible"
       id="marker6802"
       refX="0"
       refY="0"
       orient="auto"
       inkscape:stockid="Arrow1Lend"
       inkscape:collect="always">
      <path
         transform="matrix(-0.8,0,0,-0.8,-10,0)"
         style="fill:#000000;fill-opacity:1;fill-rule:evenodd;stroke:#000000;stroke-width:1pt;stroke-opacity:1"
         d="M 0,0 5,-5 -12.5,0 5,5 0,0 Z"
         id="path6804"
         inkscape:connector-curvature="0" />
    </marker>
    <marker
       inkscape:stockid="Arrow1Lend"
       orient="auto"
       refY="0"
       refX="0"
       id="marker6736"
       style="overflow:visible"
       inkscape:isstock="true"
       inkscape:collect="always">
      <path
         id="path6738"
         d="M 0,0 5,-5 -12.5,0 5,5 0,0 Z"
         style="fill:#000000;fill-opacity:1;fill-rule:evenodd;stroke:#000000;stroke-width:1pt;stroke-opacity:1"
         transform="matrix(-0.8,0,0,-0.8,-10,0)"
         inkscape:connector-curvature="0" />
    </marker>
    <marker
       inkscape:stockid="Arrow1Lend"
       orient="auto"
       refY="0"
       refX="0"
       id="marker5226"
       style="overflow:visible"
       inkscape:isstock="true">
      <path
         id="path5228"
         d="M 0,0 5,-5 -12.5,0 5,5 0,0 Z"
         style="fill:#000000;fill-opacity:1;fill-rule:evenodd;stroke:#000000;stroke-width:1pt;stroke-opacity:1"
         transform="matrix(-0.8,0,0,-0.8,-10,0)"
         inkscape:connector-curvature="0" />
    </marker>
    <marker
       inkscape:isstock="true"
       style="overflow:visible"
       id="marker5172"
       refX="0"
       refY="0"
       orient="auto"
       inkscape:stockid="Arrow1Lend"
       inkscape:collect="always">
      <path
         transform="matrix(-0.8,0,0,-0.8,-10,0)"
         style="fill:#000000;fill-opacity:1;fill-rule:evenodd;stroke:#000000;stroke-width:1pt;stroke-opacity:1"
         d="M 0,0 5,-5 -12.5,0 5,5 0,0 Z"
         id="path5174"
         inkscape:connector-curvature="0" />
    </marker>
    <marker
       inkscape:stockid="Arrow1Lend"
       orient="auto"
       refY="0"
       refX="0"
       id="marker5124"
       style="overflow:visible"
       inkscape:isstock="true"
       inkscape:collect="always">
      <path
         id="path5126"
         d="M 0,0 5,-5 -12.5,0 5,5 0,0 Z"
         style="fill:#000000;fill-opacity:1;fill-rule:evenodd;stroke:#000000;stroke-width:1pt;stroke-opacity:1"
         transform="matrix(-0.8,0,0,-0.8,-10,0)"
         inkscape:connector-curvature="0" />
    </marker>
    <marker
       inkscape:isstock="true"
       style="overflow:visible"
       id="marker5082"
       refX="0"
       refY="0"
       orient="auto"
       inkscape:stockid="Arrow1Lend"
       inkscape:collect="always">
      <path
         transform="matrix(-0.8,0,0,-0.8,-10,0)"
         style="fill:#000000;fill-opacity:1;fill-rule:evenodd;stroke:#000000;stroke-width:1pt;stroke-opacity:1"
         d="M 0,0 5,-5 -12.5,0 5,5 0,0 Z"
         id="path5084"
         inkscape:connector-curvature="0" />
    </marker>
    <marker
       inkscape:stockid="Arrow1Lend"
       orient="auto"
       refY="0"
       refX="0"
       id="marker5034"
       style="overflow:visible"
       inkscape:isstock="true">
      <path
         id="path5036"
         d="M 0,0 5,-5 -12.5,0 5,5 0,0 Z"
         style="fill:#000000;fill-opacity:1;fill-rule:evenodd;stroke:#000000;stroke-width:1pt;stroke-opacity:1"
         transform="matrix(-0.8,0,0,-0.8,-10,0)"
         inkscape:connector-curvature="0" />
    </marker>
    <marker
       inkscape:stockid="Arrow1Lend"
       orient="auto"
       refY="0"
       refX="0"
       id="Arrow1Lend"
       style="overflow:visible"
       inkscape:isstock="true"
       inkscape:collect="always">
      <path
         id="path4573"
         d="M 0,0 5,-5 -12.5,0 5,5 0,0 Z"
         style="fill:#000000;fill-opacity:1;fill-rule:evenodd;stroke:#000000;stroke-width:1pt;stroke-opacity:1"
         transform="matrix(-0.8,0,0,-0.8,-10,0)"
         inkscape:connector-curvature="0" />
    </marker>
  </defs>
  <sodipodi:namedview
     id="base"
     pagecolor="#ffffff"
     bordercolor="#666666"
     borderopacity="1.0"
     inkscape:pageopacity="0.0"
     inkscape:pageshadow="2"
     inkscape:zoom="0.98994949"
     inkscape:cx="298.77132"
     inkscape:cy="135.37925"
     inkscape:document-units="px"
     inkscape:current-layer="layer1"
     showgrid="false"
     inkscape:window-width="1364"
     inkscape:window-height="744"
     inkscape:window-x="0"
     inkscape:window-y="22"
     inkscape:window-maximized="0"
     fit-margin-top="10"
     fit-margin-left="5"
     fit-margin-right="5"
     fit-margin-bottom="10" />
  <metadata
     id="metadata7">
    <rdf:RDF>
      <cc:Work
         rdf:about="">
        <dc:format>image/svg+xml</dc:format>
        <dc:type
           rdf:resource="http://purl.org/dc/dcmitype/StillImage" />
        <dc:title></dc:title>
      </cc:Work>
    </rdf:RDF>
  </metadata>
  <g
     inkscape:label="Layer 1"
     inkscape:groupmode="layer"
     id="layer1"
     transform="translate(-8.9731841,20.997531)">
    <g
       style="font-style:normal;font-variant:normal;font-weight:normal;font-stretch:normal;font-size:12.85416222px;line-height:125%;font-family:'Linux Biolinum';-inkscape-font-specification:'Linux Biolinum';letter-spacing:0px;word-spacing:0px;fill:#000000;fill-opacity:1;stroke:none;stroke-width:1px;stroke-linecap:butt;stroke-linejoin:miter;stroke-opacity:1"
       id="flowRoot4138" />
    <g
       style="font-style:normal;font-variant:normal;font-weight:normal;font-stretch:normal;font-size:32.13540649px;line-height:125%;font-family:'Linux Biolinum';-inkscape-font-specification:'Linux Biolinum';letter-spacing:0px;word-spacing:0px;fill:#000000;fill-opacity:1;stroke:none;stroke-width:1px;stroke-linecap:butt;stroke-linejoin:miter;stroke-opacity:1"
       id="text4146" />
    <g
       style="font-style:normal;font-variant:normal;font-weight:normal;font-stretch:normal;font-size:21.42360306px;line-height:125%;font-family:'Linux Biolinum';-inkscape-font-specification:'Linux Biolinum';letter-spacing:0px;word-spacing:0px;fill:#000000;fill-opacity:1;stroke:none;stroke-width:1px;stroke-linecap:butt;stroke-linejoin:miter;stroke-opacity:1"
       id="flowRoot4150" />
    <g
       style="font-style:normal;font-variant:normal;font-weight:normal;font-stretch:normal;font-size:12.85416222px;line-height:125%;font-family:'Linux Biolinum';-inkscape-font-specification:'Linux Biolinum';letter-spacing:0px;word-spacing:0px;fill:#000000;fill-opacity:1;stroke:none;stroke-width:1px;stroke-linecap:butt;stroke-linejoin:miter;stroke-opacity:1"
       id="flowRoot4158-5">
      <path
         d="m 61.258301,153.38013 q -2.252197,0.74707 -4.13086,0.74707 -3.076171,0 -4.735107,-1.58203 -1.647949,-1.58204 -1.647949,-4.52637 0,-2.77954 1.582031,-4.57031 1.593018,-1.79078 4.042969,-1.79078 2.471924,0 3.636474,1.48316 1.175537,1.48315 1.175537,4.61426 l 0,0.69214 -8.129882,0 q 0.241699,4.05395 4.372558,4.05395 1.746826,0 3.834229,-0.83496 l 0,1.71387 z m -8.140869,-6.55884 5.756836,0 0,-0.30762 q 0,-3.22998 -2.691651,-3.22998 -1.296387,0 -2.109375,0.93384 -0.802002,0.93384 -0.95581,2.60376 z"
         style="font-size:22.5px"
         id="path15515"
         inkscape:connector-curvature="0" />
      <path
         d="m 74.881348,153.84155 q -1.625977,0.28565 -3.14209,0.28565 -2.647705,0 -3.603516,-0.94483 -0.95581,-0.95581 -0.95581,-3.60351 l 0,-5.75684 -2.977295,0 0,-1.62598 2.977295,0 0,-2.5708 2.175293,0 0,2.5708 5.284423,0 0,1.62598 -5.284423,0 0,6.1084 q 0,1.02173 0.120849,1.40625 0.131836,0.38452 0.549317,0.67017 0.74707,0.49438 2.175293,0.49438 1.351318,0 2.680664,-0.30762 l 0,1.64795 z"
         style="font-size:22.5px"
         id="path15517"
         inkscape:connector-curvature="0" />
      <path
         d="m 88.471436,153.46802 q -1.922608,0.65918 -3.834229,0.65918 -3.120117,0 -4.812012,-1.62598 -1.680908,-1.62598 -1.680908,-4.61426 0,-2.93335 1.658936,-4.5813 1.669922,-1.64795 4.63623,-1.64795 1.889649,0 3.812256,0.57129 l 0,1.81275 q -2.120361,-0.75806 -3.614502,-0.75806 -1.955566,0 -3.076172,1.23047 -1.109619,1.23047 -1.109619,3.3728 0,2.16431 1.186523,3.39478 1.19751,1.21948 3.295899,1.21948 1.571045,0 3.537598,-0.73608 l 0,1.70288 z"
         style="font-size:22.5px"
         id="path15519"
         inkscape:connector-curvature="0" />
    </g>
    <rect
       style="opacity:1;fill:none;fill-opacity:1;stroke:#000000;stroke-width:0.71412015;stroke-miterlimit:4;stroke-dasharray:none;stroke-dashoffset:0;stroke-opacity:1"
       id="rect4262"
       width="85.121689"
       height="29.576181"
       x="27.04678"
       y="132.08792" />
    <g
       style="font-style:normal;font-variant:normal;font-weight:normal;font-stretch:normal;font-size:12.85416222px;line-height:125%;font-family:'Linux Biolinum';-inkscape-font-specification:'Linux Biolinum';letter-spacing:0px;word-spacing:0px;fill:#000000;fill-opacity:1;stroke:none;stroke-width:1px;stroke-linecap:butt;stroke-linejoin:miter;stroke-opacity:1"
       id="flowRoot4158-5-3">
      <path
         d="m 156.46436,155.41309 0,-17.34742 2.1643,0 0,5.41626 0,2.24121 q 1.49414,-2.50488 4.06494,-2.50488 3.39478,0 3.39478,4.03198 l 0,8.16285 -2.16431,0 0,-7.56958 q 0,-1.39527 -0.43945,-1.97754 -0.42847,-0.59326 -1.4502,-0.59326 -1.62597,0 -3.40576,2.34008 l 0,7.8003 -2.1643,0 z"
         style="font-style:normal;font-variant:normal;font-weight:normal;font-stretch:semi-condensed;font-size:22.5px;font-family:'Lucida Console';-inkscape-font-specification:'Lucida Console Semi-Condensed'"
         id="path15522"
         inkscape:connector-curvature="0" />
      <path
         d="m 174.82251,155.68774 q -2.62573,0 -4.13086,-1.65893 -1.49414,-1.66992 -1.49414,-4.5813 0,-2.90039 1.50513,-4.55933 1.50512,-1.66992 4.11987,-1.66992 2.62573,0 4.11987,1.66992 1.50513,1.65894 1.50513,4.55933 0,2.91138 -1.50513,4.5813 -1.49414,1.65893 -4.11987,1.65893 z m 0,-1.62597 q 1.56006,0 2.43896,-1.21948 0.87891,-1.21949 0.87891,-3.39478 0,-2.16431 -0.87891,-3.38379 -0.8789,-1.21948 -2.43896,-1.21948 -1.56006,0 -2.43897,1.21948 -0.8789,1.21948 -0.8789,3.38379 0,2.17529 0.8789,3.39478 0.87891,1.21948 2.43897,1.21948 z"
         style="font-style:normal;font-variant:normal;font-weight:normal;font-stretch:semi-condensed;font-size:22.5px;font-family:'Lucida Console';-inkscape-font-specification:'Lucida Console Semi-Condensed'"
         id="path15524"
         inkscape:connector-curvature="0" />
      <path
         d="m 182.64478,155.41309 0,-11.93116 1.90063,0 0,2.24121 q 1.39526,-2.50488 2.65869,-2.50488 1.61499,0 2.07642,2.50488 l 0.0769,0 q 1.14258,-2.50488 2.68067,-2.50488 1.1206,0 1.62597,0.82398 0.50537,0.81298 0.50537,2.63672 l 0,8.73413 -1.90063,0 0,-8.64624 q 0,-0.97779 -0.14282,-1.32935 -0.14283,-0.35156 -0.53833,-0.35156 -1.03272,0 -2.23023,2.62573 l 0,7.70142 -1.90063,0 0,-8.25074 q 0,-1.23047 -0.14283,-1.63696 -0.14282,-0.41748 -0.57128,-0.41748 -0.46143,0 -1.09864,0.75806 -0.62622,0.74707 -1.09863,1.86767 l 0,7.67945 -1.90063,0 z"
         style="font-style:normal;font-variant:normal;font-weight:normal;font-stretch:semi-condensed;font-size:22.5px;font-family:'Lucida Console';-inkscape-font-specification:'Lucida Console Semi-Condensed'"
         id="path15526"
         inkscape:connector-curvature="0" />
      <path
         d="m 207.26514,154.94067 q -2.2522,0.74707 -4.13086,0.74707 -3.07617,0 -4.73511,-1.58203 -1.64795,-1.58203 -1.64795,-4.52636 0,-2.77955 1.58203,-4.57032 1.59302,-1.79077 4.04297,-1.79077 2.47192,0 3.63648,1.48316 1.17553,1.48315 1.17553,4.61425 l 0,0.69214 -8.12988,0 q 0.2417,4.05396 4.37256,4.05396 1.74682,0 3.83423,-0.83496 l 0,1.71386 z m -8.14087,-6.55883 5.75683,0 0,-0.30762 q 0,-3.22998 -2.69165,-3.22998 -1.29638,0 -2.10937,0.93384 -0.802,0.93383 -0.95581,2.60376 z"
         style="font-style:normal;font-variant:normal;font-weight:normal;font-stretch:semi-condensed;font-size:22.5px;font-family:'Lucida Console';-inkscape-font-specification:'Lucida Console Semi-Condensed'"
         id="path15528"
         inkscape:connector-curvature="0" />
    </g>
    <rect
       style="opacity:1;fill:none;fill-opacity:1;stroke:#000000;stroke-width:0.62300742;stroke-miterlimit:4;stroke-dasharray:none;stroke-dashoffset:0;stroke-opacity:1"
       id="rect4271"
       width="85.934174"
       height="29.667294"
       x="139.65656"
       y="132.04236" />
    <g
       style="font-style:normal;font-variant:normal;font-weight:normal;font-stretch:normal;font-size:12.85416222px;line-height:125%;font-family:'Linux Biolinum';-inkscape-font-specification:'Linux Biolinum';letter-spacing:0px;word-spacing:0px;fill:#000000;fill-opacity:1;stroke:none;stroke-width:1px;stroke-linecap:butt;stroke-linejoin:miter;stroke-opacity:1"
       id="flowRoot4158-5-0">
      <path
         d="m 272.88867,155.41309 0,-15.72144 -4.60327,0 0,-1.62598 6.77856,0 0,17.34742 -2.17529,0 z"
         style="font-style:normal;font-variant:normal;font-weight:normal;font-stretch:semi-condensed;font-size:22.5px;font-family:'Lucida Console';-inkscape-font-specification:'Lucida Console Semi-Condensed'"
         id="path15531"
         inkscape:connector-curvature="0" />
      <path
         d="m 286.2041,155.41309 0,-10.30518 -4.3396,0 0,-1.62598 6.50391,0 0,11.93116 -2.16431,0 z m -0.27466,-14.63379 0,-2.71363 2.71363,0 0,2.71363 -2.71363,0 z"
         style="font-style:normal;font-variant:normal;font-weight:normal;font-stretch:semi-condensed;font-size:22.5px;font-family:'Lucida Console';-inkscape-font-specification:'Lucida Console Semi-Condensed'"
         id="path15533"
         inkscape:connector-curvature="0" />
      <path
         d="m 295.4436,155.54492 0,-17.47925 2.16431,0 0,7.65747 q 1.57105,-2.50488 3.90015,-2.50488 2.03247,0 3.19702,1.57105 1.17554,1.56006 1.17554,4.26269 0,2.96631 -1.38428,4.80103 -1.38428,1.83471 -3.62549,1.83471 -1.92261,0 -3.26294,-1.62597 l -0.53833,1.48315 -1.62598,0 z m 2.16431,-3.10913 q 1.50513,1.62598 2.96631,1.62598 1.42822,0 2.20825,-1.25244 0.79102,-1.26343 0.79102,-3.52662 0,-4.21875 -2.51587,-4.21875 -1.83472,0 -3.44971,2.28516 l 0,5.08667 z"
         style="font-style:normal;font-variant:normal;font-weight:normal;font-stretch:semi-condensed;font-size:22.5px;font-family:'Lucida Console';-inkscape-font-specification:'Lucida Console Semi-Condensed'"
         id="path15535"
         inkscape:connector-curvature="0" />
    </g>
    <rect
       style="opacity:1;fill:none;fill-opacity:1;stroke:#000000;stroke-width:0.56048417;stroke-miterlimit:4;stroke-dasharray:none;stroke-dashoffset:0;stroke-opacity:1"
       id="rect4271-3"
       width="69.405182"
       height="29.729818"
       x="253.00198"
       y="132.01109" />
    <g
       transform="matrix(0.71412013,0,0,0.71412013,299.35658,-56.331086)"
       style="font-style:normal;font-variant:normal;font-weight:normal;font-stretch:normal;font-size:18px;line-height:125%;font-family:'Linux Biolinum';-inkscape-font-specification:'Linux Biolinum';letter-spacing:0px;word-spacing:0px;fill:#000000;fill-opacity:1;stroke:none;stroke-width:1px;stroke-linecap:butt;stroke-linejoin:miter;stroke-opacity:1"
       id="flowRoot4158-5-7">
      <path
         d="m 94.345706,291.86349 q -3.676878,0 -5.784544,-2.32304 -2.092282,-2.33844 -2.092282,-6.41531 0,-4.06149 2.107667,-6.38454 2.107666,-2.33843 5.769159,-2.33843 3.676878,0 5.769164,2.33843 2.10766,2.32305 2.10766,6.38454 0,4.07687 -2.10766,6.41531 -2.092286,2.32304 -5.769164,2.32304 z m 0,-2.27689 q 2.184589,0 3.415343,-1.70767 1.230754,-1.70767 1.230754,-4.75379 0,-3.03073 -1.230754,-4.7384 -1.230754,-1.70767 -3.415343,-1.70767 -2.184588,0 -3.415342,1.70767 -1.230754,1.70767 -1.230754,4.7384 0,3.04612 1.230754,4.75379 1.230754,1.70767 3.415342,1.70767 z"
         style="font-style:normal;font-variant:normal;font-weight:normal;font-stretch:semi-condensed;font-size:31.50730324px;font-family:'Lucida Console';-inkscape-font-specification:'Lucida Console Semi-Condensed'"
         id="path15538"
         inkscape:connector-curvature="0" />
      <path
         d="m 106.62248,297.55573 0,-22.78433 3.03073,0 0,3.13842 q 2.19997,-3.50765 5.46147,-3.50765 2.84612,0 4.47687,2.19997 1.64613,2.18459 1.64613,5.96916 0,4.1538 -1.93844,6.72299 -1.93843,2.5692 -5.07686,2.5692 -2.69227,0 -4.56917,-2.27689 l 0,7.96913 -3.03073,0 z m 3.03073,-10.24603 q 2.10767,2.2769 4.15379,2.2769 1.99998,0 3.09227,-1.75383 1.10768,-1.7692 1.10768,-4.9384 0,-5.90762 -3.52303,-5.90762 -2.5692,0 -4.83071,3.19996 l 0,7.12299 z"
         style="font-style:normal;font-variant:normal;font-weight:normal;font-stretch:semi-condensed;font-size:31.50730324px;font-family:'Lucida Console';-inkscape-font-specification:'Lucida Console Semi-Condensed'"
         id="path15540"
         inkscape:connector-curvature="0" />
      <path
         d="m 139.83745,291.4635 q -2.27689,0.39999 -4.39994,0.39999 -3.70765,0 -5.04609,-1.32306 -1.33845,-1.33844 -1.33845,-5.04609 l 0,-8.06144 -4.16918,0 0,-2.27689 4.16918,0 0,-3.59996 3.04612,0 0,3.59996 7.39991,0 0,2.27689 -7.39991,0 0,8.55374 q 0,1.43075 0.16923,1.96921 0.18461,0.53845 0.76922,0.93845 1.04614,0.6923 3.04611,0.6923 1.89229,0 3.7538,-0.43077 l 0,2.30767 z"
         style="font-style:normal;font-variant:normal;font-weight:normal;font-stretch:semi-condensed;font-size:31.50730324px;font-family:'Lucida Console';-inkscape-font-specification:'Lucida Console Semi-Condensed'"
         id="path15542"
         inkscape:connector-curvature="0" />
    </g>
    <rect
       style="opacity:1;fill:none;fill-opacity:1;stroke:#000000;stroke-width:0.52483606;stroke-miterlimit:4;stroke-dasharray:none;stroke-dashoffset:0;stroke-opacity:1"
       id="rect4271-1"
       width="60.784386"
       height="29.765467"
       x="349.76935"
       y="131.99327" />
    <g
       transform="matrix(0.71412013,0,0,0.71412013,389.0965,-57.347318)"
       style="font-style:normal;font-variant:normal;font-weight:normal;font-stretch:normal;font-size:18px;line-height:125%;font-family:'Linux Biolinum';-inkscape-font-specification:'Linux Biolinum';letter-spacing:0px;word-spacing:0px;fill:#000000;fill-opacity:1;stroke:none;stroke-width:1px;stroke-linecap:butt;stroke-linejoin:miter;stroke-opacity:1"
       id="flowRoot4158-5-8">
      <path
         d="m 87.730403,290.80197 0,-2.73843 q 3.523034,1.52306 6.092233,1.52306 1.846131,0 3.046116,-0.73845 1.215369,-0.75384 1.215369,-1.89229 0,-1.46152 -2.876887,-2.38458 l -3.246114,-1.06153 q -3.799953,-1.23075 -3.799953,-4.33841 0,-2.27689 1.707671,-3.52303 1.723056,-1.24614 4.861479,-1.24614 2.353817,0 5.461473,0.72307 l 0,2.46151 q -2.999965,-0.90768 -5.476858,-0.90768 -1.661518,0 -2.661505,0.59999 -0.984604,0.59999 -0.984604,1.61536 0,1.24614 2.261511,2.03075 l 3.830722,1.33844 q 2.092282,0.73845 2.999964,1.76921 0.92306,1.01537 0.92306,2.64612 0,2.3692 -1.953818,3.78457 -1.953822,1.39998 -5.246089,1.39998 -2.876887,0 -6.15377,-1.06152 z"
         style="font-style:normal;font-variant:normal;font-weight:normal;font-stretch:semi-condensed;font-size:31.50730324px;font-family:'Lucida Console';-inkscape-font-specification:'Lucida Console Semi-Condensed'"
         id="path15545"
         inkscape:connector-curvature="0" />
      <path
         d="m 106.05325,297.55573 0,-2.27689 1.23076,0 q 1.72305,0 2.50766,-0.55384 0.78461,-0.55384 1.64613,-2.38459 l 0.75384,-1.59998 -7.0153,-15.96903 3.13842,0 5.46148,12.50753 5.50762,-12.50753 2.72304,0 -8.41528,18.84592 q -0.9846,2.19997 -2.35381,3.0615 -1.36922,0.87691 -3.89226,0.87691 l -1.2923,0 z"
         style="font-style:normal;font-variant:normal;font-weight:normal;font-stretch:semi-condensed;font-size:31.50730324px;font-family:'Lucida Console';-inkscape-font-specification:'Lucida Console Semi-Condensed'"
         id="path15547"
         inkscape:connector-curvature="0" />
      <path
         d="m 125.7607,290.80197 0,-2.73843 q 3.52304,1.52306 6.09224,1.52306 1.84613,0 3.04611,-0.73845 1.21537,-0.75384 1.21537,-1.89229 0,-1.46152 -2.87689,-2.38458 l -3.24611,-1.06153 q -3.79995,-1.23075 -3.79995,-4.33841 0,-2.27689 1.70767,-3.52303 1.72305,-1.24614 4.86148,-1.24614 2.35381,0 5.46147,0.72307 l 0,2.46151 q -2.99997,-0.90768 -5.47686,-0.90768 -1.66152,0 -2.6615,0.59999 -0.98461,0.59999 -0.98461,1.61536 0,1.24614 2.26151,2.03075 l 3.83073,1.33844 q 2.09228,0.73845 2.99996,1.76921 0.92306,1.01537 0.92306,2.64612 0,2.3692 -1.95382,3.78457 -1.95382,1.39998 -5.24609,1.39998 -2.87688,0 -6.15377,-1.06152 z"
         style="font-style:normal;font-variant:normal;font-weight:normal;font-stretch:semi-condensed;font-size:31.50730324px;font-family:'Lucida Console';-inkscape-font-specification:'Lucida Console Semi-Condensed'"
         id="path15549"
         inkscape:connector-curvature="0" />
    </g>
    <rect
       style="opacity:1;fill:none;fill-opacity:1;stroke:#000000;stroke-width:0.53998214;stroke-miterlimit:4;stroke-dasharray:none;stroke-dashoffset:0;stroke-opacity:1"
       id="rect4271-0"
       width="64.376091"
       height="29.75032"
       x="437.90567"
       y="132.00084" />
    <g
       style="font-style:normal;font-variant:normal;font-weight:normal;font-stretch:normal;font-size:12.85416222px;line-height:125%;font-family:'Linux Biolinum';-inkscape-font-specification:'Linux Biolinum';letter-spacing:0px;word-spacing:0px;fill:#000000;fill-opacity:1;stroke:none;stroke-width:1px;stroke-linecap:butt;stroke-linejoin:miter;stroke-opacity:1"
       id="flowRoot4158-5-6">
      <path
         d="m 554.18652,140.90576 0,11.93115 -2.1643,0 0,-2.24121 q -1.49414,2.51587 -4.07593,2.51587 -3.38379,0 -3.38379,-4.04297 l 0,-8.16284 2.16431,0 0,7.56958 q 0,1.40625 0.42846,1.99951 0.42847,0.58228 1.46119,0.58228 1.62597,0 3.40576,-2.35108 l 0,-7.80029 2.1643,0 z"
         style="font-style:normal;font-variant:normal;font-weight:normal;font-stretch:semi-condensed;font-size:22.5px;font-family:'Lucida Console';-inkscape-font-specification:'Lucida Console Semi-Condensed'"
         id="path15552"
         inkscape:connector-curvature="0" />
      <path
         d="m 558.26245,152.35352 0,-1.95557 q 2.51587,1.08765 4.35059,1.08765 1.31836,0 2.17529,-0.52735 0.86792,-0.53833 0.86792,-1.35132 0,-1.0437 -2.05444,-1.70288 l -2.31812,-0.75805 q -2.71362,-0.87891 -2.71362,-3.09815 0,-1.62598 1.21948,-2.51587 1.23047,-0.88989 3.47168,-0.88989 1.68091,0 3.90015,0.51636 l 0,1.75781 q -2.14234,-0.64819 -3.91114,-0.64819 -1.18652,0 -1.90063,0.42846 -0.70313,0.42847 -0.70313,1.15357 0,0.88989 1.61499,1.45019 l 2.7356,0.95581 q 1.49414,0.52735 2.14233,1.26343 0.65918,0.7251 0.65918,1.88965 0,1.69189 -1.39526,2.70264 -1.39526,0.99975 -3.74634,0.99975 -2.05444,0 -4.39453,-0.75805 z"
         style="font-style:normal;font-variant:normal;font-weight:normal;font-stretch:semi-condensed;font-size:22.5px;font-family:'Lucida Console';-inkscape-font-specification:'Lucida Console Semi-Condensed'"
         id="path15554"
         inkscape:connector-curvature="0" />
      <path
         d="m 573.1709,152.83691 0,-11.93115 2.16431,0 0,2.24121 q 1.64794,-2.50488 4.42749,-2.50488 0.97778,0 2.21923,0.27466 l 0,3.38379 -1.62597,0 0,-1.65894 q -0.4834,-0.10986 -0.87891,-0.10986 -1.24145,0 -2.18628,0.58227 -0.93384,0.57129 -1.95556,1.95557 l 0,7.76733 -2.16431,0 z"
         style="font-style:normal;font-variant:normal;font-weight:normal;font-stretch:semi-condensed;font-size:22.5px;font-family:'Lucida Console';-inkscape-font-specification:'Lucida Console Semi-Condensed'"
         id="path15556"
         inkscape:connector-curvature="0" />
    </g>
    <rect
       style="opacity:1;fill:none;fill-opacity:1;stroke:#000000;stroke-width:0.55179304;stroke-miterlimit:4;stroke-dasharray:none;stroke-dashoffset:0;stroke-opacity:1"
       id="rect4271-36"
       width="67.249756"
       height="29.738508"
       x="529.64716"
       y="132.00674" />
    <g
       style="font-style:normal;font-variant:normal;font-weight:normal;font-stretch:normal;font-size:12.85416222px;line-height:125%;font-family:'Linux Biolinum';-inkscape-font-specification:'Linux Biolinum';letter-spacing:0px;word-spacing:0px;fill:#000000;fill-opacity:1;stroke:none;stroke-width:1px;stroke-linecap:butt;stroke-linejoin:miter;stroke-opacity:1"
       id="flowRoot4158">
      <path
         d="m 329.15873,20.427595 -14.43583,29.420843 -2.58904,0 14.43583,-29.420843 2.58904,0 z"
         style="font-style:normal;font-variant:normal;font-weight:normal;font-stretch:semi-condensed;font-size:32.13540649px;font-family:'Lucida Console';-inkscape-font-specification:'Lucida Console Semi-Condensed'"
         id="path15559"
         inkscape:connector-curvature="0" />
    </g>
    <rect
       style="opacity:1;fill:none;fill-opacity:1;stroke:#000000;stroke-width:1;stroke-miterlimit:4;stroke-dasharray:none;stroke-dashoffset:0;stroke-opacity:1"
       id="rect4401"
       width="40.406101"
       height="40.406101"
       x="301.04083"
       y="14.93554" />
    <path
       style="fill:none;fill-rule:evenodd;stroke:#000000;stroke-width:1.10238731px;stroke-linecap:butt;stroke-linejoin:miter;stroke-opacity:1;marker-end:url(#Arrow1Lend)"
       d="M 320.04144,55.300365 109.00295,128.79718"
       id="path4564"
       inkscape:connector-curvature="0" />
    <path
       style="fill:none;fill-rule:evenodd;stroke:#000000;stroke-width:1.04069066px;stroke-linecap:butt;stroke-linejoin:miter;stroke-opacity:1;marker-end:url(#marker5034)"
       d="M 319.52392,56.01808 205.4108,129.23366"
       id="path5032"
       inkscape:connector-curvature="0" />
    <path
       style="fill:none;fill-rule:evenodd;stroke:#000000;stroke-width:1.03478968px;stroke-linecap:butt;stroke-linejoin:miter;stroke-opacity:1;marker-end:url(#marker5082)"
       d="M 319.50114,55.902524 292.96913,125.50016"
       id="path5074"
       inkscape:connector-curvature="0" />
    <path
       style="fill:none;fill-rule:evenodd;stroke:#000000;stroke-width:0.93260932px;stroke-linecap:butt;stroke-linejoin:miter;stroke-opacity:1;marker-end:url(#marker5124)"
       d="m 319.79316,55.645038 48.12358,69.379992"
       id="path5116"
       inkscape:connector-curvature="0" />
    <path
       style="fill:none;fill-rule:evenodd;stroke:#000000;stroke-width:0.96098411px;stroke-linecap:butt;stroke-linejoin:miter;stroke-opacity:1;marker-end:url(#marker5172)"
       d="M 318.24986,55.286843 443.70159,128.76484"
       id="path5164"
       inkscape:connector-curvature="0" />
    <path
       style="fill:none;fill-rule:evenodd;stroke:#000000;stroke-width:0.95866191px;stroke-linecap:butt;stroke-linejoin:miter;stroke-opacity:1;marker-end:url(#marker5226)"
       d="M 319.93991,56.058869 531.07465,127.3386"
       id="path5218"
       inkscape:connector-curvature="0" />
    <g
       style="font-style:normal;font-variant:normal;font-weight:normal;font-stretch:normal;font-size:12.85416222px;line-height:125%;font-family:'Linux Biolinum';-inkscape-font-specification:'Linux Biolinum';letter-spacing:0px;word-spacing:0px;fill:#000000;fill-opacity:1;stroke:none;stroke-width:1px;stroke-linecap:butt;stroke-linejoin:miter;stroke-opacity:1"
       id="flowRoot4158-5-3-3">
      <path
         d="m 189.06348,250.70386 0.23071,-1.82373 q 1.94458,0.82397 3.6145,0.82397 3.47168,0 3.47168,-3.30688 l 0.0989,-2.15332 q -1.36231,2.47192 -3.94409,2.47192 -2.04346,0 -3.25196,-1.54907 -1.19751,-1.56006 -1.19751,-4.19678 0,-2.86743 1.39527,-4.6582 1.39526,-1.80176 3.62549,-1.80176 1.74682,0 3.43872,1.63696 l 0,-1.3623 2.03247,0 0,9.54712 q 0,2.31811 -0.30762,3.48266 -0.30762,1.17554 -1.15356,2.07642 -1.35132,1.43921 -4.22974,1.43921 -1.6919,0 -3.82324,-0.62622 z m 7.34985,-8.21778 0,-4.69116 q -1.46118,-1.64795 -3.02124,-1.64795 -1.41724,0 -2.20825,1.23047 -0.79102,1.23047 -0.79102,3.44971 0,1.87866 0.69214,2.94433 0.69214,1.05469 1.93359,1.05469 1.92261,0 3.39478,-2.34009 z"
         style="font-style:normal;font-variant:normal;font-weight:normal;font-stretch:semi-condensed;font-size:22.5px;font-family:'Lucida Console';-inkscape-font-specification:'Lucida Console Semi-Condensed'"
         id="path15562"
         inkscape:connector-curvature="0" />
      <path
         d="m 206.55371,246.71582 0,-10.30518 -4.3396,0 0,-1.62597 6.50391,0 0,11.93115 -2.16431,0 z m -0.27466,-14.63379 0,-2.71362 2.71363,0 0,2.71362 -2.71363,0 z"
         style="font-style:normal;font-variant:normal;font-weight:normal;font-stretch:semi-condensed;font-size:22.5px;font-family:'Lucida Console';-inkscape-font-specification:'Lucida Console Semi-Condensed'"
         id="path15564"
         inkscape:connector-curvature="0" />
      <path
         d="m 220.39648,246.71582 0,-15.72144 -4.60327,0 0,-1.62597 6.77857,0 0,17.34741 -2.1753,0 z"
         style="font-style:normal;font-variant:normal;font-weight:normal;font-stretch:semi-condensed;font-size:22.5px;font-family:'Lucida Console';-inkscape-font-specification:'Lucida Console Semi-Condensed'"
         id="path15566"
         inkscape:connector-curvature="0" />
    </g>
    <rect
       style="opacity:1;fill:none;fill-opacity:1;stroke:#000000;stroke-width:0.62300742;stroke-miterlimit:4;stroke-dasharray:none;stroke-dashoffset:0;stroke-opacity:1"
       id="rect4271-5"
       width="85.934174"
       height="29.667294"
       x="162.36166"
       y="225.5154" />
    <g
       style="font-style:normal;font-variant:normal;font-weight:normal;font-stretch:normal;font-size:12.85416222px;line-height:125%;font-family:'Linux Biolinum';-inkscape-font-specification:'Linux Biolinum';letter-spacing:0px;word-spacing:0px;fill:#000000;fill-opacity:1;stroke:none;stroke-width:1px;stroke-linecap:butt;stroke-linejoin:miter;stroke-opacity:1"
       id="flowRoot4158-5-3-38">
      <path
         d="m 313.88428,245.29395 0,-11.93116 2.1643,0 0,2.24121 q 1.49414,-2.50488 4.06495,-2.50488 3.39477,0 3.39477,4.03198 l 0,8.16285 -2.16431,0 0,-7.56958 q 0,-1.39527 -0.43945,-1.97754 -0.42847,-0.59327 -1.45019,-0.59327 -1.62598,0 -3.40577,2.34009 l 0,7.8003 -2.1643,0 z"
         style="font-style:normal;font-variant:normal;font-weight:normal;font-stretch:semi-condensed;font-size:22.5px;font-family:'Lucida Console';-inkscape-font-specification:'Lucida Console Semi-Condensed'"
         id="path15569"
         inkscape:connector-curvature="0" />
      <path
         d="m 334.63745,243.85474 q -1.96655,1.64795 -3.92212,1.64795 -1.63696,0 -2.70263,-0.93384 -1.05469,-0.93384 -1.05469,-2.36206 0,-1.85669 1.64795,-2.98828 1.64795,-1.1316 4.35058,-1.1316 l 1.34033,0 0,-1.02172 q 0,-1.26343 -0.5603,-1.80176 -0.5603,-0.53833 -1.85669,-0.53833 -1.87866,0 -3.88916,1.05469 l 0,-1.85669 q 2.30713,-0.82398 4.32862,-0.82398 2.27417,0 3.208,0.90088 0.94483,0.90088 0.94483,3.10913 l 0,4.99878 q 0,1.07666 0.23071,1.47217 0.23071,0.38452 0.86792,0.38452 0.20874,0 0.68115,-0.10986 l 0.19776,1.29638 q -1.08765,0.35157 -1.64795,0.35157 -1.60401,0 -2.16431,-1.64795 z m -0.34058,-1.40625 0,-3.01026 -0.64819,0 q -4.44946,0 -4.44946,2.40601 0,0.86792 0.57129,1.39526 0.57129,0.52735 1.51611,0.52735 1.41724,0 3.01025,-1.31836 z"
         style="font-style:normal;font-variant:normal;font-weight:normal;font-stretch:semi-condensed;font-size:22.5px;font-family:'Lucida Console';-inkscape-font-specification:'Lucida Console Semi-Condensed'"
         id="path15571"
         inkscape:connector-curvature="0" />
      <path
         d="m 351.1499,245.28296 q -1.62597,0.28564 -3.14209,0.28564 -2.6477,0 -3.60351,-0.94482 -0.95581,-0.95581 -0.95581,-3.60352 l 0,-5.75683 -2.9773,0 0,-1.62598 2.9773,0 0,-2.5708 2.17529,0 0,2.5708 5.28442,0 0,1.62598 -5.28442,0 0,6.1084 q 0,1.02172 0.12085,1.40625 0.13183,0.38452 0.54932,0.67016 0.74707,0.49439 2.17529,0.49439 1.35132,0 2.68066,-0.30762 l 0,1.64795 z"
         style="font-style:normal;font-variant:normal;font-weight:normal;font-stretch:semi-condensed;font-size:22.5px;font-family:'Lucida Console';-inkscape-font-specification:'Lucida Console Semi-Condensed'"
         id="path15573"
         inkscape:connector-curvature="0" />
      <path
         d="m 354.18213,249.63354 0,-1.62597 0.87891,0 q 1.23046,0 1.79077,-0.39551 0.5603,-0.39551 1.17553,-1.70288 l 0.53833,-1.14258 -5.00976,-11.40381 2.24121,0 3.90015,8.93189 3.9331,-8.93189 1.94458,0 -6.00952,13.45825 q -0.70313,1.57105 -1.68091,2.18628 -0.97778,0.62622 -2.77954,0.62622 l -0.92285,0 z"
         style="font-style:normal;font-variant:normal;font-weight:normal;font-stretch:semi-condensed;font-size:22.5px;font-family:'Lucida Console';-inkscape-font-specification:'Lucida Console Semi-Condensed'"
         id="path15575"
         inkscape:connector-curvature="0" />
    </g>
    <rect
       style="opacity:1;fill:none;fill-opacity:1;stroke:#000000;stroke-width:0.62300742;stroke-miterlimit:4;stroke-dasharray:none;stroke-dashoffset:0;stroke-opacity:1"
       id="rect4271-08"
       width="85.934174"
       height="29.667294"
       x="296.7626"
       y="225.5154" />
    <g
       transform="translate(-293.2144,-25.103831)"
       style="font-style:normal;font-variant:normal;font-weight:normal;font-stretch:normal;font-size:12.85416222px;line-height:125%;font-family:'Linux Biolinum';-inkscape-font-specification:'Linux Biolinum';letter-spacing:0px;word-spacing:0px;fill:#000000;fill-opacity:1;stroke:none;stroke-width:1px;stroke-linecap:butt;stroke-linejoin:miter;stroke-opacity:1"
       id="flowRoot4158-5-3-9">
      <path
         d="m 347.61401,273.60474 q -1.9226,0.65918 -3.83422,0.65918 -3.12012,0 -4.81202,-1.62598 -1.6809,-1.62598 -1.6809,-4.61426 0,-2.93335 1.65893,-4.5813 1.66992,-1.64795 4.63623,-1.64795 1.88965,0 3.81226,0.57129 l 0,1.81275 q -2.12036,-0.75806 -3.6145,-0.75806 -1.95557,0 -3.07618,1.23047 -1.10962,1.23047 -1.10962,3.3728 0,2.16431 1.18653,3.39478 1.19751,1.21948 3.2959,1.21948 1.57104,0 3.53759,-0.73608 l 0,1.70288 z"
         style="font-style:normal;font-variant:normal;font-weight:normal;font-stretch:semi-condensed;font-size:22.5px;font-family:'Lucida Console';-inkscape-font-specification:'Lucida Console Semi-Condensed'"
         id="path15578"
         inkscape:connector-curvature="0" />
      <path
         d="m 351.07471,273.98926 0,-17.34741 2.1643,0 0,5.41626 0,2.24121 q 1.49414,-2.50489 4.06495,-2.50489 3.39477,0 3.39477,4.03199 l 0,8.16284 -2.16431,0 0,-7.56958 q 0,-1.39527 -0.43945,-1.97754 -0.42847,-0.59326 -1.45019,-0.59326 -1.62598,0 -3.40577,2.34008 l 0,7.8003 -2.1643,0 z"
         style="font-style:normal;font-variant:normal;font-weight:normal;font-stretch:semi-condensed;font-size:22.5px;font-family:'Lucida Console';-inkscape-font-specification:'Lucida Console Semi-Condensed'"
         id="path15580"
         inkscape:connector-curvature="0" />
      <path
         d="m 366.03809,273.98926 0,-11.93115 2.1643,0 0,2.24121 q 1.64795,-2.50489 4.42749,-2.50489 0.97779,0 2.21924,0.27466 l 0,3.38379 -1.62598,0 0,-1.65893 q -0.48339,-0.10987 -0.8789,-0.10987 -1.24146,0 -2.18628,0.58228 -0.93384,0.57129 -1.95557,1.95556 l 0,7.76734 -2.1643,0 z"
         style="font-style:normal;font-variant:normal;font-weight:normal;font-stretch:semi-condensed;font-size:22.5px;font-family:'Lucida Console';-inkscape-font-specification:'Lucida Console Semi-Condensed'"
         id="path15582"
         inkscape:connector-curvature="0" />
      <path
         d="m 382.47363,273.98926 0,-10.30518 -4.3396,0 0,-1.62597 6.50391,0 0,11.93115 -2.16431,0 z m -0.27466,-14.63379 0,-2.71362 2.71363,0 0,2.71362 -2.71363,0 z"
         style="font-style:normal;font-variant:normal;font-weight:normal;font-stretch:semi-condensed;font-size:22.5px;font-family:'Lucida Console';-inkscape-font-specification:'Lucida Console Semi-Condensed'"
         id="path15584"
         inkscape:connector-curvature="0" />
      <path
         d="m 391.86694,273.50586 0,-1.95557 q 2.51587,1.08765 4.35059,1.08765 1.31836,0 2.17529,-0.52734 0.86792,-0.53833 0.86792,-1.35132 0,-1.0437 -2.05444,-1.70288 l -2.31812,-0.75806 q -2.71362,-0.87891 -2.71362,-3.09814 0,-1.62598 1.21948,-2.51587 1.23047,-0.8899 3.47168,-0.8899 1.68091,0 3.90015,0.51636 l 0,1.75781 q -2.14233,-0.64819 -3.91113,-0.64819 -1.18653,0 -1.90064,0.42847 -0.70312,0.42846 -0.70312,1.15356 0,0.88989 1.61499,1.4502 l 2.73559,0.95581 q 1.49414,0.52734 2.14234,1.26342 0.65918,0.7251 0.65918,1.88965 0,1.6919 -1.39527,2.70264 -1.39526,0.99976 -3.74634,0.99976 -2.05444,0 -4.39453,-0.75806 z"
         style="font-style:normal;font-variant:normal;font-weight:normal;font-stretch:semi-condensed;font-size:22.5px;font-family:'Lucida Console';-inkscape-font-specification:'Lucida Console Semi-Condensed'"
         id="path15586"
         inkscape:connector-curvature="0" />
    </g>
    <rect
       style="opacity:1;fill:none;fill-opacity:1;stroke:#000000;stroke-width:0.62300742;stroke-miterlimit:4;stroke-dasharray:none;stroke-dashoffset:0;stroke-opacity:1"
       id="rect4271-4"
       width="85.934174"
       height="29.667294"
       x="33.163467"
       y="225.5154" />
    <path
       style="fill:none;fill-rule:evenodd;stroke:#000000;stroke-width:0.98441899px;stroke-linecap:butt;stroke-linejoin:miter;stroke-opacity:1;marker-end:url(#marker6736)"
       d="m 180.42413,162.49498 -77.42111,57.51438"
       id="path6728"
       inkscape:connector-curvature="0" />
    <path
       style="fill:none;fill-rule:evenodd;stroke:#000000;stroke-width:1px;stroke-linecap:butt;stroke-linejoin:miter;stroke-opacity:1;marker-end:url(#marker6802)"
       d="m 179.80715,162.41781 27.27412,57.5787"
       id="path6794"
       inkscape:connector-curvature="0" />
    <path
       style="fill:none;fill-rule:evenodd;stroke:#000000;stroke-width:1.01695168px;stroke-linecap:butt;stroke-linejoin:miter;stroke-opacity:1;marker-end:url(#marker6874)"
       d="m 180.20232,162.83516 122.82629,56.13869"
       id="path6866"
       inkscape:connector-curvature="0" />
    <g
       id="g7232"
       transform="translate(113.98928,-5.172593)">
      <g
         style="font-style:normal;font-variant:normal;font-weight:normal;font-stretch:normal;font-size:12.85416222px;line-height:125%;font-family:'Linux Biolinum';-inkscape-font-specification:'Linux Biolinum';letter-spacing:0px;word-spacing:0px;fill:#000000;fill-opacity:1;stroke:none;stroke-width:1px;stroke-linecap:butt;stroke-linejoin:miter;stroke-opacity:1"
         id="flowRoot4158-5-3-3-7">
        <path
           d="m 105.06104,344.55176 0,-14.09546 4.2517,0 q 7.03125,0 7.03125,6.76758 0,3.1311 -1.5271,5.06469 -0.95581,1.21949 -2.36206,1.74683 -1.39526,0.51636 -3.72436,0.51636 l -3.66943,0 z m 2.1643,-1.62598 1.08765,0 q 3.09814,0 4.40552,-1.23047 1.31836,-1.23047 1.31836,-4.13086 0,-2.94433 -1.18653,-4.20776 -1.18652,-1.27441 -3.95508,-1.27441 l -1.66992,0 0,10.8435 z"
           style="font-style:normal;font-variant:normal;font-weight:normal;font-stretch:semi-condensed;font-size:22.5px;font-family:'Lucida Console';-inkscape-font-specification:'Lucida Console Semi-Condensed'"
           id="path15589"
           inkscape:connector-curvature="0" />
        <path
           d="m 123.99048,344.82642 q -2.62573,0 -4.13086,-1.65894 -1.49414,-1.66992 -1.49414,-4.5813 0,-2.90039 1.50513,-4.55932 1.50512,-1.66993 4.11987,-1.66993 2.62573,0 4.11987,1.66993 1.50513,1.65893 1.50513,4.55932 0,2.91138 -1.50513,4.5813 -1.49414,1.65894 -4.11987,1.65894 z m 0,-1.62598 q 1.56006,0 2.43896,-1.21948 0.87891,-1.21949 0.87891,-3.39478 0,-2.16431 -0.87891,-3.38379 -0.8789,-1.21948 -2.43896,-1.21948 -1.56006,0 -2.43897,1.21948 -0.8789,1.21948 -0.8789,3.38379 0,2.17529 0.8789,3.39478 0.87891,1.21948 2.43897,1.21948 z"
           style="font-style:normal;font-variant:normal;font-weight:normal;font-stretch:semi-condensed;font-size:22.5px;font-family:'Lucida Console';-inkscape-font-specification:'Lucida Console Semi-Condensed'"
           id="path15591"
           inkscape:connector-curvature="0" />
        <path
           d="m 142.90894,344.16724 q -1.92261,0.65918 -3.83423,0.65918 -3.12012,0 -4.81201,-1.62598 -1.68091,-1.62598 -1.68091,-4.61426 0,-2.93335 1.65893,-4.5813 1.66992,-1.64795 4.63623,-1.64795 1.88965,0 3.81226,0.57129 l 0,1.81275 q -2.12036,-0.75806 -3.6145,-0.75806 -1.95557,0 -3.07617,1.23047 -1.10962,1.23047 -1.10962,3.3728 0,2.16431 1.18652,3.39478 1.19751,1.21948 3.2959,1.21948 1.57104,0 3.5376,-0.73608 l 0,1.70288 z"
           style="font-style:normal;font-variant:normal;font-weight:normal;font-stretch:semi-condensed;font-size:22.5px;font-family:'Lucida Console';-inkscape-font-specification:'Lucida Console Semi-Condensed'"
           id="path15593"
           inkscape:connector-curvature="0" />
        <path
           d="m 155.92773,332.62061 0,11.93115 -2.1643,0 0,-2.24121 q -1.49414,2.51587 -4.07593,2.51587 -3.38379,0 -3.38379,-4.04297 l 0,-8.16284 2.16431,0 0,7.56958 q 0,1.40625 0.42846,1.99951 0.42847,0.58227 1.46119,0.58227 1.62597,0 3.40576,-2.35107 l 0,-7.80029 2.1643,0 z"
           style="font-style:normal;font-variant:normal;font-weight:normal;font-stretch:semi-condensed;font-size:22.5px;font-family:'Lucida Console';-inkscape-font-specification:'Lucida Console Semi-Condensed'"
           id="path15595"
           inkscape:connector-curvature="0" />
        <path
           d="m 158.97095,344.55176 0,-11.93115 1.90063,0 0,2.24121 q 1.39527,-2.50489 2.65869,-2.50489 1.61499,0 2.07642,2.50489 l 0.0769,0 q 1.14258,-2.50489 2.68067,-2.50489 1.1206,0 1.62597,0.82398 0.50538,0.81299 0.50538,2.63672 l 0,8.73413 -1.90064,0 0,-8.64624 q 0,-0.97779 -0.14282,-1.32935 -0.14282,-0.35156 -0.53833,-0.35156 -1.03272,0 -2.23023,2.62573 l 0,7.70142 -1.90063,0 0,-8.25073 q 0,-1.23047 -0.14282,-1.63697 -0.14283,-0.41748 -0.57129,-0.41748 -0.46143,0 -1.09864,0.75806 -0.62622,0.74707 -1.09863,1.86767 l 0,7.67945 -1.90063,0 z"
           style="font-style:normal;font-variant:normal;font-weight:normal;font-stretch:semi-condensed;font-size:22.5px;font-family:'Lucida Console';-inkscape-font-specification:'Lucida Console Semi-Condensed'"
           id="path15597"
           inkscape:connector-curvature="0" />
        <path
           d="m 183.59131,344.07935 q -2.2522,0.74707 -4.13086,0.74707 -3.07617,0 -4.73511,-1.58204 -1.64795,-1.58203 -1.64795,-4.52636 0,-2.77954 1.58203,-4.57031 1.59302,-1.79078 4.04297,-1.79078 2.47193,0 3.63648,1.48316 1.17553,1.48315 1.17553,4.61426 l 0,0.69213 -8.12988,0 q 0.2417,4.05396 4.37256,4.05396 1.74683,0 3.83423,-0.83496 l 0,1.71387 z m -8.14087,-6.55884 5.75684,0 0,-0.30762 q 0,-3.22998 -2.69166,-3.22998 -1.29638,0 -2.10937,0.93384 -0.802,0.93384 -0.95581,2.60376 z"
           style="font-style:normal;font-variant:normal;font-weight:normal;font-stretch:semi-condensed;font-size:22.5px;font-family:'Lucida Console';-inkscape-font-specification:'Lucida Console Semi-Condensed'"
           id="path15599"
           inkscape:connector-curvature="0" />
        <path
           d="m 187.10693,344.55176 0,-11.93115 2.16431,0 0,2.24121 q 1.49414,-2.50489 4.06494,-2.50489 3.39478,0 3.39478,4.03199 l 0,8.16284 -2.16431,0 0,-7.56958 q 0,-1.39527 -0.43945,-1.97754 -0.42847,-0.59326 -1.4502,-0.59326 -1.62597,0 -3.40576,2.34008 l 0,7.8003 -2.16431,0 z"
           style="font-style:normal;font-variant:normal;font-weight:normal;font-stretch:semi-condensed;font-size:22.5px;font-family:'Lucida Console';-inkscape-font-specification:'Lucida Console Semi-Condensed'"
           id="path15601"
           inkscape:connector-curvature="0" />
        <path
           d="m 210.79346,344.54077 q -1.62598,0.28565 -3.14209,0.28565 -2.64771,0 -3.60352,-0.94483 -0.95581,-0.95581 -0.95581,-3.60351 l 0,-5.75684 -2.97729,0 0,-1.62598 2.97729,0 0,-2.5708 2.17529,0 0,2.5708 5.28443,0 0,1.62598 -5.28443,0 0,6.1084 q 0,1.02173 0.12085,1.40625 0.13184,0.38452 0.54932,0.67016 0.74707,0.49439 2.17529,0.49439 1.35132,0 2.68067,-0.30762 l 0,1.64795 z"
           style="font-style:normal;font-variant:normal;font-weight:normal;font-stretch:semi-condensed;font-size:22.5px;font-family:'Lucida Console';-inkscape-font-specification:'Lucida Console Semi-Condensed'"
           id="path15603"
           inkscape:connector-curvature="0" />
        <path
           d="m 214.32007,344.06836 0,-1.95557 q 2.51587,1.08765 4.35058,1.08765 1.31836,0 2.1753,-0.52734 0.86792,-0.53833 0.86792,-1.35132 0,-1.0437 -2.05445,-1.70288 l -2.31811,-0.75806 q -2.71362,-0.87891 -2.71362,-3.09814 0,-1.62598 1.21948,-2.51587 1.23047,-0.8899 3.47168,-0.8899 1.68091,0 3.90014,0.51636 l 0,1.75781 q -2.14233,-0.64819 -3.91113,-0.64819 -1.18652,0 -1.90063,0.42847 -0.70313,0.42846 -0.70313,1.15356 0,0.88989 1.61499,1.4502 l 2.7356,0.95581 q 1.49414,0.52734 2.14233,1.26342 0.65918,0.7251 0.65918,1.88965 0,1.6919 -1.39526,2.70264 -1.39527,0.99976 -3.74634,0.99976 -2.05444,0 -4.39453,-0.75806 z"
           style="font-style:normal;font-variant:normal;font-weight:normal;font-stretch:semi-condensed;font-size:22.5px;font-family:'Lucida Console';-inkscape-font-specification:'Lucida Console Semi-Condensed'"
           id="path15605"
           inkscape:connector-curvature="0" />
      </g>
      <rect
         y="322.841"
         x="89.265846"
         height="29.468899"
         width="150.38554"
         id="rect4271-5-6"
         style="opacity:1;fill:none;fill-opacity:1;stroke:#000000;stroke-width:0.82140303;stroke-miterlimit:4;stroke-dasharray:none;stroke-dashoffset:0;stroke-opacity:1" />
    </g>
    <g
       id="g7246"
       transform="translate(300.95811,-50.688432)">
      <g
         transform="translate(-16.976347,47.075921)"
         style="font-style:normal;font-variant:normal;font-weight:normal;font-stretch:normal;font-size:12.85416222px;line-height:125%;font-family:'Linux Biolinum';-inkscape-font-specification:'Linux Biolinum';letter-spacing:0px;word-spacing:0px;fill:#000000;fill-opacity:1;stroke:none;stroke-width:1px;stroke-linecap:butt;stroke-linejoin:miter;stroke-opacity:1"
         id="flowRoot4158-5-3-3-7-4">
        <path
           d="m 105.06104,344.55176 0,-14.09546 4.2517,0 q 7.03125,0 7.03125,6.76758 0,3.1311 -1.5271,5.06469 -0.95581,1.21949 -2.36206,1.74683 -1.39526,0.51636 -3.72436,0.51636 l -3.66943,0 z m 2.1643,-1.62598 1.08765,0 q 3.09814,0 4.40552,-1.23047 1.31836,-1.23047 1.31836,-4.13086 0,-2.94433 -1.18653,-4.20776 -1.18652,-1.27441 -3.95508,-1.27441 l -1.66992,0 0,10.8435 z"
           style="font-style:normal;font-variant:normal;font-weight:normal;font-stretch:semi-condensed;font-size:22.5px;font-family:'Lucida Console';-inkscape-font-specification:'Lucida Console Semi-Condensed'"
           id="path15608"
           inkscape:connector-curvature="0" />
        <path
           d="m 123.99048,344.82642 q -2.62573,0 -4.13086,-1.65894 -1.49414,-1.66992 -1.49414,-4.5813 0,-2.90039 1.50513,-4.55932 1.50512,-1.66993 4.11987,-1.66993 2.62573,0 4.11987,1.66993 1.50513,1.65893 1.50513,4.55932 0,2.91138 -1.50513,4.5813 -1.49414,1.65894 -4.11987,1.65894 z m 0,-1.62598 q 1.56006,0 2.43896,-1.21948 0.87891,-1.21949 0.87891,-3.39478 0,-2.16431 -0.87891,-3.38379 -0.8789,-1.21948 -2.43896,-1.21948 -1.56006,0 -2.43897,1.21948 -0.8789,1.21948 -0.8789,3.38379 0,2.17529 0.8789,3.39478 0.87891,1.21948 2.43897,1.21948 z"
           style="font-style:normal;font-variant:normal;font-weight:normal;font-stretch:semi-condensed;font-size:22.5px;font-family:'Lucida Console';-inkscape-font-specification:'Lucida Console Semi-Condensed'"
           id="path15610"
           inkscape:connector-curvature="0" />
        <path
           d="m 133.09814,344.55176 -2.17529,-11.93115 1.99951,0 1.58203,9.33837 0.022,0 2.12036,-8.25073 2.09839,0 2.0105,8.56934 0.0329,0 1.75782,-9.65698 1.65893,0 -2.38403,11.93115 -2.13135,0 -2.09839,-8.9209 -0.022,0 -2.31812,8.9209 -2.15332,0 z"
           style="font-style:normal;font-variant:normal;font-weight:normal;font-stretch:semi-condensed;font-size:22.5px;font-family:'Lucida Console';-inkscape-font-specification:'Lucida Console Semi-Condensed'"
           id="path15612"
           inkscape:connector-curvature="0" />
        <path
           d="m 146.36963,344.55176 0,-11.93115 2.16431,0 0,2.24121 q 1.49414,-2.50489 4.06494,-2.50489 3.39477,0 3.39477,4.03199 l 0,8.16284 -2.1643,0 0,-7.56958 q 0,-1.39527 -0.43946,-1.97754 -0.42846,-0.59326 -1.45019,-0.59326 -1.62598,0 -3.40576,2.34008 l 0,7.8003 -2.16431,0 z"
           style="font-style:normal;font-variant:normal;font-weight:normal;font-stretch:semi-condensed;font-size:22.5px;font-family:'Lucida Console';-inkscape-font-specification:'Lucida Console Semi-Condensed'"
           id="path15614"
           inkscape:connector-curvature="0" />
        <path
           d="m 164.45312,344.55176 0,-15.72144 -4.60327,0 0,-1.62597 6.77857,0 0,17.34741 -2.1753,0 z"
           style="font-style:normal;font-variant:normal;font-weight:normal;font-stretch:semi-condensed;font-size:22.5px;font-family:'Lucida Console';-inkscape-font-specification:'Lucida Console Semi-Condensed'"
           id="path15616"
           inkscape:connector-curvature="0" />
        <path
           d="m 178.30688,344.82642 q -2.62573,0 -4.13085,-1.65894 -1.49415,-1.66992 -1.49415,-4.5813 0,-2.90039 1.50513,-4.55932 1.50513,-1.66993 4.11987,-1.66993 2.62574,0 4.11988,1.66993 1.50512,1.65893 1.50512,4.55932 0,2.91138 -1.50512,4.5813 -1.49414,1.65894 -4.11988,1.65894 z m 0,-1.62598 q 1.56006,0 2.43897,-1.21948 0.87891,-1.21949 0.87891,-3.39478 0,-2.16431 -0.87891,-3.38379 -0.87891,-1.21948 -2.43897,-1.21948 -1.56005,0 -2.43896,1.21948 -0.87891,1.21948 -0.87891,3.38379 0,2.17529 0.87891,3.39478 0.87891,1.21948 2.43896,1.21948 z"
           style="font-style:normal;font-variant:normal;font-weight:normal;font-stretch:semi-condensed;font-size:22.5px;font-family:'Lucida Console';-inkscape-font-specification:'Lucida Console Semi-Condensed'"
           id="path15618"
           inkscape:connector-curvature="0" />
        <path
           d="m 194.28101,343.11255 q -1.96656,1.64795 -3.92212,1.64795 -1.63697,0 -2.70264,-0.93384 -1.05469,-0.93384 -1.05469,-2.36206 0,-1.85669 1.64795,-2.98828 1.64795,-1.13159 4.35059,-1.13159 l 1.34033,0 0,-1.02173 q 0,-1.26343 -0.5603,-1.80176 -0.56031,-0.53833 -1.85669,-0.53833 -1.87866,0 -3.88916,1.05469 l 0,-1.85669 q 2.30713,-0.82398 4.32861,-0.82398 2.27417,0 3.20801,0.90088 0.94482,0.90088 0.94482,3.10913 l 0,4.99878 q 0,1.07666 0.23072,1.47217 0.23071,0.38452 0.86792,0.38452 0.20874,0 0.68115,-0.10986 l 0.19775,1.29639 q -1.08764,0.35156 -1.64795,0.35156 -1.604,0 -2.1643,-1.64795 z m -0.34058,-1.40625 0,-3.01026 -0.64819,0 q -4.44947,0 -4.44947,2.40601 0,0.86792 0.57129,1.39526 0.57129,0.52735 1.51612,0.52735 1.41723,0 3.01025,-1.31836 z"
           style="font-style:normal;font-variant:normal;font-weight:normal;font-stretch:semi-condensed;font-size:22.5px;font-family:'Lucida Console';-inkscape-font-specification:'Lucida Console Semi-Condensed'"
           id="path15620"
           inkscape:connector-curvature="0" />
        <path
           d="m 208.35449,344.55176 0,-2.24121 q -1.58203,2.51587 -3.91113,2.51587 -2.02149,0 -3.19702,-1.57105 -1.16455,-1.57104 -1.16455,-4.27368 0,-2.96631 1.38427,-4.79004 1.38428,-1.83472 3.62549,-1.83472 1.92261,0 3.26294,1.62598 l 0,-6.77856 2.16431,0 0,17.34741 -2.16431,0 z m 0,-8.94287 q -1.51611,-1.62598 -2.96631,-1.62598 -1.42822,0 -2.21923,1.25244 -0.78003,1.25244 -0.78003,3.52661 0,4.20777 2.51587,4.20777 1.83471,0 3.4497,-2.28516 l 0,-5.07568 z"
           style="font-style:normal;font-variant:normal;font-weight:normal;font-stretch:semi-condensed;font-size:22.5px;font-family:'Lucida Console';-inkscape-font-specification:'Lucida Console Semi-Condensed'"
           id="path15622"
           inkscape:connector-curvature="0" />
        <path
           d="m 214.32007,344.06836 0,-1.95557 q 2.51587,1.08765 4.35058,1.08765 1.31836,0 2.1753,-0.52734 0.86792,-0.53833 0.86792,-1.35132 0,-1.0437 -2.05445,-1.70288 l -2.31811,-0.75806 q -2.71362,-0.87891 -2.71362,-3.09814 0,-1.62598 1.21948,-2.51587 1.23047,-0.8899 3.47168,-0.8899 1.68091,0 3.90014,0.51636 l 0,1.75781 q -2.14233,-0.64819 -3.91113,-0.64819 -1.18652,0 -1.90063,0.42847 -0.70313,0.42846 -0.70313,1.15356 0,0.88989 1.61499,1.4502 l 2.7356,0.95581 q 1.49414,0.52734 2.14233,1.26342 0.65918,0.7251 0.65918,1.88965 0,1.6919 -1.39526,2.70264 -1.39527,0.99976 -3.74634,0.99976 -2.05444,0 -4.39453,-0.75806 z"
           style="font-style:normal;font-variant:normal;font-weight:normal;font-stretch:semi-condensed;font-size:22.5px;font-family:'Lucida Console';-inkscape-font-specification:'Lucida Console Semi-Condensed'"
           id="path15624"
           inkscape:connector-curvature="0" />
      </g>
      <rect
         y="368.35684"
         x="72.289497"
         height="29.468899"
         width="150.38554"
         id="rect4271-5-6-9"
         style="opacity:1;fill:none;fill-opacity:1;stroke:#000000;stroke-width:0.82140303;stroke-miterlimit:4;stroke-dasharray:none;stroke-dashoffset:0;stroke-opacity:1" />
    </g>
    <g
       id="g7239"
       transform="translate(-160.20451,-44.639695)">
      <g
         transform="translate(117.37394,38.994701)"
         style="font-style:normal;font-variant:normal;font-weight:normal;font-stretch:normal;font-size:12.85416222px;line-height:125%;font-family:'Linux Biolinum';-inkscape-font-specification:'Linux Biolinum';letter-spacing:0px;word-spacing:0px;fill:#000000;fill-opacity:1;stroke:none;stroke-width:1px;stroke-linecap:butt;stroke-linejoin:miter;stroke-opacity:1"
         id="flowRoot4158-5-3-3-7-5">
        <path
           d="m 105.06104,344.55176 0,-14.09546 4.2517,0 q 7.03125,0 7.03125,6.76758 0,3.1311 -1.5271,5.06469 -0.95581,1.21949 -2.36206,1.74683 -1.39526,0.51636 -3.72436,0.51636 l -3.66943,0 z m 2.1643,-1.62598 1.08765,0 q 3.09814,0 4.40552,-1.23047 1.31836,-1.23047 1.31836,-4.13086 0,-2.94433 -1.18653,-4.20776 -1.18652,-1.27441 -3.95508,-1.27441 l -1.66992,0 0,10.8435 z"
           style="font-style:normal;font-variant:normal;font-weight:normal;font-stretch:semi-condensed;font-size:22.5px;font-family:'Lucida Console';-inkscape-font-specification:'Lucida Console Semi-Condensed'"
           id="path15627"
           inkscape:connector-curvature="0" />
        <path
           d="m 129.2749,344.07935 q -2.25219,0.74707 -4.13086,0.74707 -3.07617,0 -4.7351,-1.58204 -1.64795,-1.58203 -1.64795,-4.52636 0,-2.77954 1.58203,-4.57031 1.59302,-1.79078 4.04297,-1.79078 2.47192,0 3.63647,1.48316 1.17554,1.48315 1.17554,4.61426 l 0,0.69213 -8.12988,0 q 0.24169,4.05396 4.37255,4.05396 1.74683,0 3.83423,-0.83496 l 0,1.71387 z m -8.14087,-6.55884 5.75684,0 0,-0.30762 q 0,-3.22998 -2.69165,-3.22998 -1.29639,0 -2.10938,0.93384 -0.802,0.93384 -0.95581,2.60376 z"
           style="font-style:normal;font-variant:normal;font-weight:normal;font-stretch:semi-condensed;font-size:22.5px;font-family:'Lucida Console';-inkscape-font-specification:'Lucida Console Semi-Condensed'"
           id="path15629"
           inkscape:connector-curvature="0" />
        <path
           d="m 132.84546,344.06836 0,-1.95557 q 2.51587,1.08765 4.35058,1.08765 1.31836,0 2.1753,-0.52734 0.86792,-0.53833 0.86792,-1.35132 0,-1.0437 -2.05445,-1.70288 l -2.31811,-0.75806 q -2.71362,-0.87891 -2.71362,-3.09814 0,-1.62598 1.21948,-2.51587 1.23047,-0.8899 3.47168,-0.8899 1.68091,0 3.90014,0.51636 l 0,1.75781 q -2.14233,-0.64819 -3.91113,-0.64819 -1.18652,0 -1.90063,0.42847 -0.70313,0.42846 -0.70313,1.15356 0,0.88989 1.61499,1.4502 l 2.7356,0.95581 q 1.49414,0.52734 2.14233,1.26342 0.65918,0.7251 0.65918,1.88965 0,1.6919 -1.39526,2.70264 -1.39527,0.99976 -3.74634,0.99976 -2.05444,0 -4.39453,-0.75806 z"
           style="font-style:normal;font-variant:normal;font-weight:normal;font-stretch:semi-condensed;font-size:22.5px;font-family:'Lucida Console';-inkscape-font-specification:'Lucida Console Semi-Condensed'"
           id="path15631"
           inkscape:connector-curvature="0" />
        <path
           d="m 146.71021,344.55176 0,-17.34741 2.1643,0 0,11.10717 5.00977,-5.69091 2.34009,0 -4.71314,5.37231 5.91064,6.55884 -2.92236,0 -5.625,-6.24024 0,6.24024 -2.1643,0 z"
           style="font-style:normal;font-variant:normal;font-weight:normal;font-stretch:semi-condensed;font-size:22.5px;font-family:'Lucida Console';-inkscape-font-specification:'Lucida Console Semi-Condensed'"
           id="path15633"
           inkscape:connector-curvature="0" />
        <path
           d="m 170.05615,344.54077 q -1.62597,0.28565 -3.14209,0.28565 -2.6477,0 -3.60351,-0.94483 -0.95581,-0.95581 -0.95581,-3.60351 l 0,-5.75684 -2.9773,0 0,-1.62598 2.9773,0 0,-2.5708 2.17529,0 0,2.5708 5.28442,0 0,1.62598 -5.28442,0 0,6.1084 q 0,1.02173 0.12085,1.40625 0.13183,0.38452 0.54932,0.67016 0.74707,0.49439 2.17529,0.49439 1.35132,0 2.68066,-0.30762 l 0,1.64795 z"
           style="font-style:normal;font-variant:normal;font-weight:normal;font-stretch:semi-condensed;font-size:22.5px;font-family:'Lucida Console';-inkscape-font-specification:'Lucida Console Semi-Condensed'"
           id="path15635"
           inkscape:connector-curvature="0" />
        <path
           d="m 178.30688,344.82642 q -2.62573,0 -4.13085,-1.65894 -1.49415,-1.66992 -1.49415,-4.5813 0,-2.90039 1.50513,-4.55932 1.50513,-1.66993 4.11987,-1.66993 2.62574,0 4.11988,1.66993 1.50512,1.65893 1.50512,4.55932 0,2.91138 -1.50512,4.5813 -1.49414,1.65894 -4.11988,1.65894 z m 0,-1.62598 q 1.56006,0 2.43897,-1.21948 0.87891,-1.21949 0.87891,-3.39478 0,-2.16431 -0.87891,-3.38379 -0.87891,-1.21948 -2.43897,-1.21948 -1.56005,0 -2.43896,1.21948 -0.87891,1.21948 -0.87891,3.38379 0,2.17529 0.87891,3.39478 0.87891,1.21948 2.43896,1.21948 z"
           style="font-style:normal;font-variant:normal;font-weight:normal;font-stretch:semi-condensed;font-size:22.5px;font-family:'Lucida Console';-inkscape-font-specification:'Lucida Console Semi-Condensed'"
           id="path15637"
           inkscape:connector-curvature="0" />
        <path
           d="m 187.07397,348.89136 0,-16.27075 2.16431,0 0,2.24121 q 1.57105,-2.50489 3.90015,-2.50489 2.03247,0 3.19702,1.57105 1.17554,1.56006 1.17554,4.26269 0,2.96631 -1.38428,4.80103 -1.38428,1.83472 -3.62549,1.83472 -1.92261,0 -3.26294,-1.62598 l 0,5.69092 -2.16431,0 z m 2.16431,-7.3169 q 1.50513,1.62598 2.96631,1.62598 1.42822,0 2.20825,-1.25244 0.79102,-1.26343 0.79102,-3.52661 0,-4.21875 -2.51587,-4.21875 -1.83472,0 -3.44971,2.28515 l 0,5.08667 z"
           style="font-style:normal;font-variant:normal;font-weight:normal;font-stretch:semi-condensed;font-size:22.5px;font-family:'Lucida Console';-inkscape-font-specification:'Lucida Console Semi-Condensed'"
           id="path15639"
           inkscape:connector-curvature="0" />
      </g>
      <rect
         y="362.30811"
         x="193.46718"
         height="29.468899"
         width="150.38554"
         id="rect4271-5-6-4"
         style="opacity:1;fill:none;fill-opacity:1;stroke:#000000;stroke-width:0.82140303;stroke-miterlimit:4;stroke-dasharray:none;stroke-dashoffset:0;stroke-opacity:1" />
    </g>
    <g
       id="g7253"
       transform="translate(342.85151,-95.135147)">
      <g
         transform="translate(117.37394,91.522633)"
         style="font-style:normal;font-variant:normal;font-weight:normal;font-stretch:normal;font-size:12.85416222px;line-height:125%;font-family:'Linux Biolinum';-inkscape-font-specification:'Linux Biolinum';letter-spacing:0px;word-spacing:0px;fill:#000000;fill-opacity:1;stroke:none;stroke-width:1px;stroke-linecap:butt;stroke-linejoin:miter;stroke-opacity:1"
         id="flowRoot4158-5-3-3-7-9">
        <path
           d="m 106.1377,344.55176 0,-14.09546 4.58129,0 q 2.44996,0 3.49366,0.43945 2.13134,0.92285 2.13134,3.55957 0,2.21924 -1.72485,3.48267 -1.71387,1.26343 -4.73511,1.26343 l -1.58203,0 0,5.35034 -2.1643,0 z m 2.1643,-6.97632 1.35132,0 q 4.39453,0 4.39453,-3.07617 0,-1.29639 -0.83496,-1.85669 -0.82397,-0.5603 -2.75757,-0.5603 l -2.15332,0 0,5.49316 z"
           style="font-style:normal;font-variant:normal;font-weight:normal;font-stretch:semi-condensed;font-size:22.5px;font-family:'Lucida Console';-inkscape-font-specification:'Lucida Console Semi-Condensed'"
           id="path15642"
           inkscape:connector-curvature="0" />
        <path
           d="m 123.45215,344.55176 0,-10.30518 -4.3396,0 0,-1.62597 6.50391,0 0,11.93115 -2.16431,0 z m -0.27466,-14.63379 0,-2.71362 2.71362,0 0,2.71362 -2.71362,0 z"
           style="font-style:normal;font-variant:normal;font-weight:normal;font-stretch:semi-condensed;font-size:22.5px;font-family:'Lucida Console';-inkscape-font-specification:'Lucida Console Semi-Condensed'"
           id="path15644"
           inkscape:connector-curvature="0" />
        <path
           d="m 142.90894,344.16724 q -1.92261,0.65918 -3.83423,0.65918 -3.12012,0 -4.81201,-1.62598 -1.68091,-1.62598 -1.68091,-4.61426 0,-2.93335 1.65893,-4.5813 1.66992,-1.64795 4.63623,-1.64795 1.88965,0 3.81226,0.57129 l 0,1.81275 q -2.12036,-0.75806 -3.6145,-0.75806 -1.95557,0 -3.07617,1.23047 -1.10962,1.23047 -1.10962,3.3728 0,2.16431 1.18652,3.39478 1.19751,1.21948 3.2959,1.21948 1.57104,0 3.5376,-0.73608 l 0,1.70288 z"
           style="font-style:normal;font-variant:normal;font-weight:normal;font-stretch:semi-condensed;font-size:22.5px;font-family:'Lucida Console';-inkscape-font-specification:'Lucida Console Semi-Condensed'"
           id="path15646"
           inkscape:connector-curvature="0" />
        <path
           d="m 156.47705,344.54077 q -1.62598,0.28565 -3.14209,0.28565 -2.6477,0 -3.60351,-0.94483 -0.95582,-0.95581 -0.95582,-3.60351 l 0,-5.75684 -2.97729,0 0,-1.62598 2.97729,0 0,-2.5708 2.1753,0 0,2.5708 5.28442,0 0,1.62598 -5.28442,0 0,6.1084 q 0,1.02173 0.12085,1.40625 0.13183,0.38452 0.54931,0.67016 0.74707,0.49439 2.1753,0.49439 1.35132,0 2.68066,-0.30762 l 0,1.64795 z"
           style="font-style:normal;font-variant:normal;font-weight:normal;font-stretch:semi-condensed;font-size:22.5px;font-family:'Lucida Console';-inkscape-font-specification:'Lucida Console Semi-Condensed'"
           id="path15648"
           inkscape:connector-curvature="0" />
        <path
           d="m 169.50684,332.62061 0,11.93115 -2.16431,0 0,-2.24121 q -1.49414,2.51587 -4.07593,2.51587 -3.38379,0 -3.38379,-4.04297 l 0,-8.16284 2.16431,0 0,7.56958 q 0,1.40625 0.42847,1.99951 0.42846,0.58227 1.46118,0.58227 1.62597,0 3.40576,-2.35107 l 0,-7.80029 2.16431,0 z"
           style="font-style:normal;font-variant:normal;font-weight:normal;font-stretch:semi-condensed;font-size:22.5px;font-family:'Lucida Console';-inkscape-font-specification:'Lucida Console Semi-Condensed'"
           id="path15650"
           inkscape:connector-curvature="0" />
        <path
           d="m 174.91211,344.55176 0,-11.93115 2.16431,0 0,2.24121 q 1.64795,-2.50489 4.42749,-2.50489 0.97778,0 2.21923,0.27466 l 0,3.38379 -1.62597,0 0,-1.65893 q -0.4834,-0.10987 -0.87891,-0.10987 -1.24145,0 -2.18628,0.58228 -0.93384,0.57129 -1.95556,1.95556 l 0,7.76734 -2.16431,0 z"
           style="font-style:normal;font-variant:normal;font-weight:normal;font-stretch:semi-condensed;font-size:22.5px;font-family:'Lucida Console';-inkscape-font-specification:'Lucida Console Semi-Condensed'"
           id="path15652"
           inkscape:connector-curvature="0" />
        <path
           d="m 197.17041,344.07935 q -2.2522,0.74707 -4.13086,0.74707 -3.07617,0 -4.73511,-1.58204 -1.64795,-1.58203 -1.64795,-4.52636 0,-2.77954 1.58204,-4.57031 1.59301,-1.79078 4.04296,-1.79078 2.47193,0 3.63648,1.48316 1.17554,1.48315 1.17554,4.61426 l 0,0.69213 -8.12989,0 q 0.2417,4.05396 4.37256,4.05396 1.74683,0 3.83423,-0.83496 l 0,1.71387 z m -8.14087,-6.55884 5.75684,0 0,-0.30762 q 0,-3.22998 -2.69165,-3.22998 -1.29639,0 -2.10938,0.93384 -0.802,0.93384 -0.95581,2.60376 z"
           style="font-style:normal;font-variant:normal;font-weight:normal;font-stretch:semi-condensed;font-size:22.5px;font-family:'Lucida Console';-inkscape-font-specification:'Lucida Console Semi-Condensed'"
           id="path15654"
           inkscape:connector-curvature="0" />
        <path
           d="m 200.74097,344.06836 0,-1.95557 q 2.51587,1.08765 4.35058,1.08765 1.31836,0 2.1753,-0.52734 0.86792,-0.53833 0.86792,-1.35132 0,-1.0437 -2.05445,-1.70288 l -2.31811,-0.75806 q -2.71363,-0.87891 -2.71363,-3.09814 0,-1.62598 1.21949,-2.51587 1.23047,-0.8899 3.47168,-0.8899 1.6809,0 3.90014,0.51636 l 0,1.75781 q -2.14233,-0.64819 -3.91113,-0.64819 -1.18652,0 -1.90064,0.42847 -0.70312,0.42846 -0.70312,1.15356 0,0.88989 1.61499,1.4502 l 2.7356,0.95581 q 1.49414,0.52734 2.14233,1.26342 0.65918,0.7251 0.65918,1.88965 0,1.6919 -1.39526,2.70264 -1.39527,0.99976 -3.74634,0.99976 -2.05445,0 -4.39453,-0.75806 z"
           style="font-style:normal;font-variant:normal;font-weight:normal;font-stretch:semi-condensed;font-size:22.5px;font-family:'Lucida Console';-inkscape-font-specification:'Lucida Console Semi-Condensed'"
           id="path15656"
           inkscape:connector-curvature="0" />
      </g>
      <rect
         y="412.80356"
         x="200.38857"
         height="29.468899"
         width="150.38554"
         id="rect4271-5-6-1"
         style="opacity:1;fill:none;fill-opacity:1;stroke:#000000;stroke-width:0.82140303;stroke-miterlimit:4;stroke-dasharray:none;stroke-dashoffset:0;stroke-opacity:1" />
    </g>
    <path
       style="fill:none;fill-rule:evenodd;stroke:#000000;stroke-width:1.10972786px;stroke-linecap:butt;stroke-linejoin:miter;stroke-opacity:1;marker-end:url(#marker7294)"
       d="m 206.01564,255.62543 -55.37756,60.17923"
       id="path7286"
       inkscape:connector-curvature="0" />
    <path
       style="fill:none;fill-rule:evenodd;stroke:#000000;stroke-width:1.07452214px;stroke-linecap:butt;stroke-linejoin:miter;stroke-opacity:1;marker-end:url(#marker7378)"
       d="m 206.7995,255.1708 45.71441,60.61623"
       id="path7370"
       inkscape:connector-curvature="0" />
    <path
       style="fill:none;fill-rule:evenodd;stroke:#000000;stroke-width:1.09464777px;stroke-linecap:butt;stroke-linejoin:miter;stroke-opacity:1;marker-end:url(#marker7468)"
       d="M 206.56673,255.34311 374.75659,314.8683"
       id="path7460"
       inkscape:connector-curvature="0" />
    <path
       style="fill:none;fill-rule:evenodd;stroke:#000000;stroke-width:1.2016331px;stroke-linecap:butt;stroke-linejoin:miter;stroke-opacity:1;marker-end:url(#marker7564)"
       d="m 206.81689,255.29437 334.3688,59.25836"
       id="path7556"
       inkscape:connector-curvature="0" />
  </g>
</svg>
